<svg xmlns="http://www.w3.org/2000/svg" width="129" height="36" fill="none"><path fill="#fff" d="M50.537 35.429q-2.64 0-4.653-1.221a8.66 8.66 0 0 1-3.135-3.234q-1.089-2.046-1.089-4.521t1.155-4.521a8.86 8.86 0 0 1 3.135-3.3q2.013-1.221 4.587-1.221t4.521 1.221a8.37 8.37 0 0 1 3.069 3.3q1.122 2.046 1.122 4.521 0 .363-.033.759a12 12 0 0 1-.099.825H46.28q.363 1.518 1.452 2.475 1.122.957 2.805.957 1.452 0 2.508-.66 1.089-.66 1.683-1.65l3.465 2.607q-1.023 1.617-3.069 2.64t-4.587 1.023m-.066-14.19q-1.584 0-2.706.957t-1.485 2.508h8.481q-.363-1.419-1.518-2.442-1.122-1.023-2.772-1.023M57.911 35l6.435-8.58-6.105-8.58h5.313l3.498 5.445 3.63-5.445h5.214l-6.105 8.646L76.226 35h-5.412l-3.729-5.478L63.225 35zm25.811 0q-2.541 0-3.894-1.254t-1.353-4.059v-8.052h-2.409V17.84h2.41v-3.465l4.454-.462v3.927h3.63v3.795h-3.63v7.821q0 1.584 1.386 1.584h1.848V35zm6.538-18.579a2.67 2.67 0 0 1-1.913-.759 2.63 2.63 0 0 1-.76-1.881q0-1.056.76-1.815a2.6 2.6 0 0 1 1.913-.792q1.155 0 1.914.792.76.759.76 1.815 0 1.122-.76 1.881-.759.759-1.914.759M88.05 35V17.84h4.454V35zm15.273.429a8.7 8.7 0 0 1-3.465-.693 9.1 9.1 0 0 1-2.805-1.914 9.4 9.4 0 0 1-1.914-2.871 9.4 9.4 0 0 1-.66-3.531q0-2.508 1.155-4.521a9 9 0 0 1 3.234-3.267q2.079-1.221 4.686-1.221 2.343-.033 4.191.825t2.937 2.376l-3.432 2.805a4.4 4.4 0 0 0-1.551-1.419q-.924-.528-2.079-.528-1.419 0-2.475.693a4.6 4.6 0 0 0-1.65 1.782q-.56 1.122-.56 2.475 0 1.32.593 2.475a5.1 5.1 0 0 0 1.683 1.815q1.089.66 2.508.66 1.287 0 2.178-.561a6.2 6.2 0 0 0 1.551-1.485l3.234 2.805a8.7 8.7 0 0 1-3.036 2.442q-1.782.858-4.323.858m16.243 0q-2.64 0-4.653-1.221a8.66 8.66 0 0 1-3.135-3.234q-1.089-2.046-1.089-4.521t1.155-4.521a8.86 8.86 0 0 1 3.135-3.3q2.013-1.221 4.587-1.221t4.521 1.221a8.37 8.37 0 0 1 3.069 3.3q1.122 2.046 1.122 4.521 0 .363-.033.759a12 12 0 0 1-.099.825h-12.837q.363 1.518 1.452 2.475 1.122.957 2.805.957 1.452 0 2.508-.66 1.089-.66 1.683-1.65l3.465 2.607q-1.023 1.617-3.069 2.64t-4.587 1.023m-.066-14.19q-1.584 0-2.706.957t-1.485 2.508h8.481q-.363-1.419-1.518-2.442-1.122-1.023-2.772-1.023"/><g clip-path="url(#a)"><path fill="url(#b)" fill-rule="evenodd" d="M16.014 35.916c-.79-.008-1.177-.008-1.177-.008q14.345-9.885 21.138-21.471l3.247 4.676c-7.91 8.042-15.64 13.64-23.208 16.803M.96 35.824 0 35.817C13.288 26.599 22.777 14.662 28.452 0c1.974 4.5 3.441 7.57 4.41 9.218C25.369 20.761 13.802 29.627.96 35.824" clip-rule="evenodd"/></g><defs><linearGradient id="b" x1="19.611" x2="19.611" y1="0" y2="35.916" gradientUnits="userSpaceOnUse"><stop stop-color="#E14A4F"/><stop offset="1" stop-color="#FEAF06"/></linearGradient><clipPath id="a"><path fill="#fff" d="M0 0h40v36H0z"/></clipPath></defs></svg>